<?xml version="1.0" encoding="UTF-8" standalone="no"?>
<!DOCTYPE svg PUBLIC "-//W3C//DTD SVG 1.1//EN" "http://www.w3.org/Graphics/SVG/1.1/DTD/svg11.dtd">
<svg xmlns="http://www.w3.org/2000/svg" version="1.1" viewBox="0.00 0.00 500.00 500.00">
<g stroke-width="2.00" fill="none" stroke-linecap="butt">
<path stroke="#5f2930" vector-effect="non-scaling-stroke" d="
  M 345.56 71.89
  Q 345.57 72.39 345.04 71.96
  Q 344.70 71.68 344.41 72.00
  C 342.09 74.60 340.83 77.54 338.32 79.82
  Q 334.59 83.24 331.14 86.94"
/>
<path stroke="#6b292e" vector-effect="non-scaling-stroke" d="
  M 402.78 161.45
  Q 402.17 163.11 400.28 163.53
  Q 399.80 163.63 399.47 164.01
  C 397.45 166.28 392.76 166.93 389.93 169.04
  Q 389.86 169.09 389.84 169.02
  Q 389.78 168.83 389.73 168.69
  Q 389.65 168.46 389.41 168.46
  Q 386.75 168.50 385.54 170.16"
/>
<path stroke="#3d1f36" vector-effect="non-scaling-stroke" d="
  M 403.66 234.08
  Q 403.61 233.88 403.56 233.72
  Q 403.45 233.35 403.17 233.62
  L 402.83 233.96
  Q 402.53 234.26 402.19 234.01
  C 399.83 232.20 398.64 229.53 396.87 227.75
  C 395.80 226.67 391.01 222.58 390.87 221.49
  A 0.59 0.58 84.3 0 0 390.25 220.98
  Q 388.96 221.06 388.02 222.24"
/>
<path stroke="#a0582a" vector-effect="non-scaling-stroke" d="
  M 256.17 141.23
  L 258.46 152.71
  Q 258.56 153.22 258.05 153.30
  Q 249.98 154.53 242.27 157.33"
/>
<path stroke="#a0582a" vector-effect="non-scaling-stroke" d="
  M 241.42 155.95
  Q 238.25 133.36 232.79 111.11
  A 0.31 0.31 0.0 0 0 232.20 111.07
  L 230.67 114.86"
/>
<path stroke="#40252f" vector-effect="non-scaling-stroke" d="
  M 230.67 114.86
  Q 229.76 113.82 230.40 112.90
  A 0.65 0.64 44.6 0 0 230.39 112.14
  L 228.90 110.19
  Q 228.70 109.93 228.54 110.21
  L 228.33 110.57
  A 0.36 0.36 0.0 0 1 227.67 110.48
  L 225.61 103.32
  A 1.28 1.28 0.0 0 0 225.25 102.74
  Q 224.35 101.94 224.23 100.76
  Q 224.19 100.29 223.88 100.65
  Q 223.34 101.31 222.73 101.20"
/>
<path stroke="#a0582a" vector-effect="non-scaling-stroke" d="
  M 287.79 168.04
  L 266.72 168.66"
/>
<path stroke="#845838" vector-effect="non-scaling-stroke" d="
  M 230.67 114.86
  C 229.57 116.86 228.68 119.30 227.80 121.06
  Q 205.47 165.94 181.91 210.22
  A 0.36 0.36 0.0 0 0 182.27 210.74
  Q 188.31 210.05 194.35 210.50
  Q 194.92 210.55 195.32 210.97
  Q 196.61 212.36 197.26 215.13"
/>
<path stroke="#845838" vector-effect="non-scaling-stroke" d="
  M 272.97 226.07
  L 283.76 210.35
  Q 284.10 209.86 283.50 209.87
  Q 261.31 210.16 238.95 208.87"
/>
<path stroke="#40252f" vector-effect="non-scaling-stroke" d="
  M 248.54 194.32
  L 268.07 194.20"
/>
<path stroke="#845838" vector-effect="non-scaling-stroke" d="
  M 246.38 440.03
  Q 245.60 433.85 246.27 427.47
  Q 246.33 426.87 246.93 426.87
  L 268.31 427.02
  A 0.85 0.85 0.0 0 0 269.17 426.19
  L 269.47 412.24
  Q 269.48 411.75 268.99 411.75
  L 218.00 411.75
  Q 217.50 411.75 217.50 412.25
  L 217.50 426.92
  Q 217.50 427.52 218.10 427.51
  L 232.26 427.17
  A 1.50 1.49 -1.3 0 1 233.79 428.62
  L 234.13 440.00"
/>
</g>
<path fill="#25235d" d="
  M 127.83 99.91
  C 85.56 141.80 70.54 205.53 98.04 259.98
  Q 103.11 270.02 108.46 279.91
  C 115.23 292.47 99.65 300.76 93.20 289.51
  C 81.53 269.16 71.52 245.23 68.39 221.90
  Q 64.58 193.50 69.21 166.49
  C 76.51 123.94 103.79 83.36 141.47 61.72
  Q 167.89 46.53 196.76 40.51
  C 200.65 39.69 203.66 41.91 205.32 45.42
  C 209.82 54.91 202.51 58.06 194.72 60.85
  C 169.62 69.81 147.04 80.86 127.83 99.91
  Z"
/>
<path fill="#3e1a32" d="
  M 345.56 71.89
  Q 345.57 72.39 345.04 71.96
  Q 344.70 71.68 344.41 72.00
  C 342.09 74.60 340.83 77.54 338.32 79.82
  Q 334.59 83.24 331.14 86.94
  C 315.78 75.29 299.73 68.01 282.25 60.08
  C 272.80 55.80 275.21 38.14 288.00 42.53
  Q 320.65 53.72 345.56 71.89
  Z"
/>
<path fill="#5c2521" d="
  M 256.17 141.23
  L 258.46 152.71
  Q 258.56 153.22 258.05 153.30
  Q 249.98 154.53 242.27 157.33
  Q 241.89 156.35 241.42 155.95
  Q 238.25 133.36 232.79 111.11
  A 0.31 0.31 0.0 0 0 232.20 111.07
  L 230.67 114.86
  Q 229.76 113.82 230.40 112.90
  A 0.65 0.64 44.6 0 0 230.39 112.14
  L 228.90 110.19
  Q 228.70 109.93 228.54 110.21
  L 228.33 110.57
  A 0.36 0.36 0.0 0 1 227.67 110.48
  L 225.61 103.32
  A 1.28 1.28 0.0 0 0 225.25 102.74
  Q 224.35 101.94 224.23 100.76
  Q 224.19 100.29 223.88 100.65
  Q 223.34 101.31 222.73 101.20
  L 239.92 69.79
  A 0.66 0.66 0.0 0 1 241.15 69.96
  Q 248.62 102.19 255.06 134.94
  Q 255.65 137.98 256.17 141.23
  Z"
/>
<path fill="#7f372d" d="
  M 345.56 71.89
  Q 389.91 106.68 402.78 161.45
  Q 402.17 163.11 400.28 163.53
  Q 399.80 163.63 399.47 164.01
  C 397.45 166.28 392.76 166.93 389.93 169.04
  Q 389.86 169.09 389.84 169.02
  Q 389.78 168.83 389.73 168.69
  Q 389.65 168.46 389.41 168.46
  Q 386.75 168.50 385.54 170.16
  Q 375.90 128.75 345.19 99.06
  Q 340.33 94.37 331.14 86.94
  Q 334.59 83.24 338.32 79.82
  C 340.83 77.54 342.09 74.60 344.41 72.00
  Q 344.70 71.68 345.04 71.96
  Q 345.57 72.39 345.56 71.89
  Z"
/>
<path fill="#23243d" d="
  M 230.67 114.86
  C 229.57 116.86 228.68 119.30 227.80 121.06
  Q 205.47 165.94 181.91 210.22
  A 0.36 0.36 0.0 0 0 182.27 210.74
  Q 188.31 210.05 194.35 210.50
  Q 194.92 210.55 195.32 210.97
  Q 196.61 212.36 197.26 215.13
  Q 187.33 234.26 175.00 252.52
  A 0.67 0.67 0.0 0 0 175.55 253.56
  L 213.93 253.81
  A 0.69 0.68 -76.8 0 1 214.54 254.80
  L 193.17 297.79
  Q 192.87 298.41 193.56 298.42
  Q 214.19 298.83 234.93 298.80
  C 240.32 298.79 243.03 302.58 241.18 307.61
  Q 231.13 334.88 222.53 362.70
  Q 222.35 363.28 222.95 363.39
  L 228.61 364.44
  Q 229.18 364.54 229.50 364.06
  C 231.15 361.54 232.21 358.00 233.23 355.97
  C 248.89 325.02 268.17 294.97 287.97 266.58
  A 0.79 0.78 -73.2 0 0 287.31 265.34
  C 274.72 265.66 261.52 266.43 248.79 265.75
  A 0.99 0.99 0.0 0 1 248.02 264.22
  L 272.97 226.07
  L 283.76 210.35
  Q 284.10 209.86 283.50 209.87
  Q 261.31 210.16 238.95 208.87
  L 248.54 194.32
  L 268.07 194.20
  Q 268.38 195.04 269.00 195.06
  Q 290.73 195.64 312.61 194.86
  A 0.64 0.63 -89.2 0 1 313.26 195.54
  Q 313.24 195.92 312.89 196.40
  Q 293.41 223.26 273.85 249.94
  A 0.53 0.53 0.0 0 0 274.28 250.78
  L 314.19 250.35
  A 0.98 0.97 16.8 0 1 315.01 251.87
  C 291.18 287.01 270.34 319.06 247.40 359.17
  Q 245.86 361.86 245.17 363.46
  A 0.52 0.52 0.0 0 0 245.63 364.18
  Q 262.08 364.80 278.47 364.34
  C 281.40 364.25 283.27 365.27 283.39 368.32
  Q 283.79 378.53 283.31 390.60
  C 283.09 396.04 289.14 406.02 291.80 410.92
  Q 292.11 411.50 291.46 411.50
  L 284.04 411.50
  Q 283.54 411.50 283.53 412.01
  Q 283.50 423.16 283.25 434.19
  Q 283.19 437.09 282.14 438.51
  C 279.24 442.46 267.10 441.66 262.78 441.31
  A 0.53 0.53 0.0 0 0 262.21 441.82
  Q 261.93 453.71 262.02 465.70
  C 262.06 470.60 260.15 473.37 255.23 473.72
  Q 246.37 474.36 246.52 465.44
  Q 246.72 452.71 246.38 440.03
  Q 245.60 433.85 246.27 427.47
  Q 246.33 426.87 246.93 426.87
  L 268.31 427.02
  A 0.85 0.85 0.0 0 0 269.17 426.19
  L 269.47 412.24
  Q 269.48 411.75 268.99 411.75
  L 218.00 411.75
  Q 217.50 411.75 217.50 412.25
  L 217.50 426.92
  Q 217.50 427.52 218.10 427.51
  L 232.26 427.17
  A 1.50 1.49 -1.3 0 1 233.79 428.62
  L 234.13 440.00
  Q 233.25 452.40 233.75 464.88
  C 234.24 477.02 218.84 477.46 218.74 466.58
  Q 218.62 454.30 218.52 442.23
  A 0.95 0.95 0.0 0 0 217.45 441.30
  C 209.03 442.30 202.68 440.88 202.77 430.93
  Q 202.84 421.47 202.45 412.02
  Q 202.43 411.54 201.95 411.54
  L 196.70 411.48
  Q 195.26 411.47 195.60 410.06
  C 196.95 404.64 198.73 399.16 199.87 393.82
  Q 208.64 352.61 223.41 313.51
  A 0.69 0.69 0.0 0 0 222.77 312.58
  L 172.08 312.24
  A 0.80 0.80 0.0 0 1 171.34 311.15
  C 177.07 296.54 184.51 282.44 191.25 268.21
  A 0.55 0.54 12.6 0 0 190.75 267.44
  L 153.26 267.55
  A 1.16 1.16 0.0 0 1 152.16 266.00
  Q 152.55 264.90 153.39 263.36
  Q 163.85 244.17 174.47 225.87
  Q 175.13 224.74 173.82 224.73
  L 159.02 224.65
  A 0.87 0.87 0.0 0 1 158.26 223.38
  L 222.73 101.20
  Q 223.34 101.31 223.88 100.65
  Q 224.19 100.29 224.23 100.76
  Q 224.35 101.94 225.25 102.74
  A 1.28 1.28 0.0 0 1 225.61 103.32
  L 227.67 110.48
  A 0.36 0.36 0.0 0 0 228.33 110.57
  L 228.54 110.21
  Q 228.70 109.93 228.90 110.19
  L 230.39 112.14
  A 0.65 0.64 44.6 0 1 230.40 112.90
  Q 229.76 113.82 230.67 114.86
  Z
  M 214.68 395.41
  A 0.95 0.95 0.0 0 0 215.60 396.58
  L 268.05 396.83
  A 0.95 0.95 0.0 0 0 269.00 395.88
  L 269.00 379.20
  A 0.95 0.95 0.0 0 0 268.05 378.25
  L 219.37 378.25
  A 0.95 0.95 0.0 0 0 218.44 378.99
  L 214.68 395.41
  Z"
/>
<path fill="#e48b32" d="
  M 287.79 168.04
  L 266.72 168.66
  L 244.83 168.80
  A 1.71 1.70 87.5 0 1 243.12 167.23
  L 242.27 157.33
  Q 249.98 154.53 258.05 153.30
  Q 258.56 153.22 258.46 152.71
  L 256.17 141.23
  L 329.35 105.99
  Q 332.86 104.30 330.61 107.48
  L 287.79 168.04
  Z"
/>
<path fill="#e48b32" d="
  M 241.42 155.95
  L 235.95 148.35
  A 0.84 0.84 0.0 0 0 234.51 148.47
  C 233.65 150.22 233.24 152.43 232.28 154.04
  Q 214.42 184.27 197.26 215.13
  Q 196.61 212.36 195.32 210.97
  Q 194.92 210.55 194.35 210.50
  Q 188.31 210.05 182.27 210.74
  A 0.36 0.36 0.0 0 1 181.91 210.22
  Q 205.47 165.94 227.80 121.06
  C 228.68 119.30 229.57 116.86 230.67 114.86
  L 232.20 111.07
  A 0.31 0.31 0.0 0 1 232.79 111.11
  Q 238.25 133.36 241.42 155.95
  Z"
/>
<path fill="#561a2e" d="
  M 402.78 161.45
  C 407.58 185.60 408.42 210.08 403.66 234.08
  Q 403.61 233.88 403.56 233.72
  Q 403.45 233.35 403.17 233.62
  L 402.83 233.96
  Q 402.53 234.26 402.19 234.01
  C 399.83 232.20 398.64 229.53 396.87 227.75
  C 395.80 226.67 391.01 222.58 390.87 221.49
  A 0.59 0.58 84.3 0 0 390.25 220.98
  Q 388.96 221.06 388.02 222.24
  Q 390.75 196.24 385.54 170.16
  Q 386.75 168.50 389.41 168.46
  Q 389.65 168.46 389.73 168.69
  Q 389.78 168.83 389.84 169.02
  Q 389.86 169.09 389.93 169.04
  C 392.76 166.93 397.45 166.28 399.47 164.01
  Q 399.80 163.63 400.28 163.53
  Q 402.17 163.11 402.78 161.45
  Z"
/>
<path fill="#5c2521" d="
  M 287.79 168.04
  L 268.07 194.20
  L 248.54 194.32
  L 266.72 168.66
  L 287.79 168.04
  Z"
/>
<path fill="#e48b32" d="
  M 238.95 208.87
  Q 261.31 210.16 283.50 209.87
  Q 284.10 209.86 283.76 210.35
  L 272.97 226.07
  L 228.72 226.31
  A 0.85 0.85 0.0 0 1 227.89 225.27
  C 228.03 224.63 228.30 223.79 228.74 223.21
  Q 234.17 216.06 238.95 208.87
  Z"
/>
<path fill="#23243d" d="
  M 403.66 234.08
  Q 397.82 261.35 383.56 285.37
  C 379.98 291.39 378.10 295.81 371.02 294.55
  C 362.38 293.00 365.60 283.36 368.52 278.04
  C 378.24 260.37 385.50 242.40 388.02 222.24
  Q 388.96 221.06 390.25 220.98
  A 0.59 0.58 84.3 0 1 390.87 221.49
  C 391.01 222.58 395.80 226.67 396.87 227.75
  C 398.64 229.53 399.83 232.20 402.19 234.01
  Q 402.53 234.26 402.83 233.96
  L 403.17 233.62
  Q 403.45 233.35 403.56 233.72
  Q 403.61 233.88 403.66 234.08
  Z"
/>
<path fill="#23243d" d="
  M 117.12 229.58
  C 120.61 227.66 130.36 227.13 130.66 233.09
  Q 131.37 246.78 136.91 259.32
  C 139.38 264.90 145.32 274.86 137.45 279.24
  C 130.26 283.24 125.86 276.80 123.09 270.35
  C 120.08 263.37 109.00 234.07 117.12 229.58
  Z"
/>
<path fill="#23243d" d="
  M 350.38 273.66
  C 344.62 286.05 330.47 278.92 335.06 267.80
  Q 339.88 256.11 342.44 245.19
  C 343.86 239.13 340.81 230.04 349.21 228.25
  C 356.85 226.63 361.54 230.89 361.00 238.43
  C 360.17 250.13 355.04 263.64 350.38 273.66
  Z"
/>
<path fill="#23243d" d="
  M 168.48 356.60
  C 160.91 359.07 144.65 346.81 147.46 338.43
  C 148.67 334.80 153.18 333.31 156.48 334.15
  C 160.85 335.25 167.10 341.00 170.81 344.20
  C 175.17 347.95 173.84 354.85 168.48 356.60
  Z"
/>
<path fill="#23243d" d="
  M 133.73 380.03
  C 121.50 371.15 110.39 360.07 101.10 348.17
  C 94.32 339.50 102.64 331.62 111.32 335.46
  Q 113.54 336.44 117.60 341.21
  C 126.39 351.50 136.99 361.89 148.25 369.47
  C 152.77 372.51 153.51 378.51 149.09 381.88
  C 144.74 385.21 137.66 382.89 133.73 380.03
  Z"
/>
<path fill="#23243d" d="
  M 320.29 355.27
  C 316.65 356.67 308.67 357.63 306.99 352.93
  C 304.17 345.03 314.10 340.48 319.30 336.87
  C 324.21 333.46 331.73 333.93 332.46 340.82
  C 333.19 347.65 326.10 353.04 320.29 355.27
  Z"
/>
<path fill="#23243d" d="
  M 328.31 380.32
  C 322.72 371.60 337.16 366.74 341.67 362.66
  Q 351.34 353.90 361.14 341.05
  C 364.67 336.42 367.56 334.34 373.26 335.06
  C 382.95 336.30 380.74 345.83 376.26 351.27
  C 370.25 358.59 338.86 396.76 328.31 380.32
  Z"
/>
<ellipse fill="#25235d" cx="0.00" cy="0.00" transform="translate(165.78,394.14) rotate(-17.4)" rx="10.22" ry="8.86"/>
<ellipse fill="#25235d" cx="0.00" cy="0.00" transform="translate(316.01,394.59) rotate(10.7)" rx="10.00" ry="9.02"/>
<path fill="#e48b32" d="
  M 246.38 440.03
  L 234.13 440.00
  L 233.79 428.62
  A 1.50 1.49 -1.3 0 0 232.26 427.17
  L 218.10 427.51
  Q 217.50 427.52 217.50 426.92
  L 217.50 412.25
  Q 217.50 411.75 218.00 411.75
  L 268.99 411.75
  Q 269.48 411.75 269.47 412.24
  L 269.17 426.19
  A 0.85 0.85 0.0 0 1 268.31 427.02
  L 246.93 426.87
  Q 246.33 426.87 246.27 427.47
  Q 245.60 433.85 246.38 440.03
  Z"
/>
</svg>
